<svg xmlns="http://www.w3.org/2000/svg" viewBox="0 0 240 240" width="240" height="240" role="img">
  <title>Avatar of team member 3</title>
  <rect width="240" height="240" fill="#fbe6c8"/>
  <circle cx="120" cy="120" r="120" fill="#f2a33c"/>
  <circle cx="120" cy="98" r="46" fill="#f9dcc0"/>
  <path d="M74 104 c-4 -40 18 -62 46 -62 s50 22 46 62 c-10 -6 -14 -20 -14 -34 c-14 10 -50 12 -64 0 c0 14 -4 28 -14 34 z" fill="#2a1a0e"/>
  <path d="M120 148 c-42 0 -72 24 -72 56 v36 h144 v-36 c0 -32 -30 -56 -72 -56 z" fill="#5b54c9"/>
  <rect x="112" y="150" width="16" height="46" rx="8" fill="#ffffff"/>
</svg>
